<svg width="180" height="180" viewBox="0 0 180 180" fill="none" xmlns="http://www.w3.org/2000/svg">
<rect width="180" height="180" rx="4" fill="#F9F9F9"/>
<path d="M72.5 111C71.5667 111 70.75 110.65 70.05 109.95C69.35 109.25 69 108.433 69 107.5V72.5C69 71.5667 69.35 70.75 70.05 70.05C70.75 69.35 71.5667 69 72.5 69H95.425V72.5H72.5V107.5H107.5V86.5H111V107.5C111 108.433 110.65 109.25 109.95 109.95C109.25 110.65 108.433 111 107.5 111H72.5ZM75.825 101.842L82.65 93.0333L88.075 100.383L95.6583 90.4667L104.233 101.842H75.825Z" fill="black" fill-opacity="0.28"/>
<path d="M105.517 74.075V79.0917H109.017V74.075H114.092V70.575H109.017V65.5H105.517V70.575H100.5V74.075H105.517Z" fill="black" fill-opacity="0.28"/>
<rect x="0.5" y="0.5" width="179" height="179" rx="3.5" stroke="black" stroke-opacity="0.08"/>
</svg>
